<svg xmlns="http://www.w3.org/2000/svg" xmlns:xlink="http://www.w3.org/1999/xlink" width="1000" zoomAndPan="magnify" viewBox="0 0 750 749.999995" height="1000" preserveAspectRatio="xMidYMid meet" version="1.2"><defs><clipPath id="4c70761009"><path d="M 231 133.09375 L 625.746094 133.09375 L 625.746094 616.84375 L 231 616.84375 Z M 231 133.09375 "/></clipPath><clipPath id="28ea488a3c"><path d="M 123.996094 391 L 316 391 L 316 616.84375 L 123.996094 616.84375 Z M 123.996094 391 "/></clipPath></defs><g id="64b9c09ca7"><g clip-rule="nonzero" clip-path="url(#4c70761009)"><path style=" stroke:none;fill-rule:nonzero;fill:#000000;fill-opacity:1;" d="M 608.15625 236.960938 L 521.59375 150.519531 C 510.449219 139.371094 495.289062 133.136719 479.550781 133.136719 L 291.421875 133.136719 C 258.304688 133.136719 231.527344 160.082031 231.527344 193.054688 L 231.527344 355.207031 C 236.28125 354.628906 241.300781 354.363281 246.15625 354.363281 C 254.449219 354.363281 262.636719 355.207031 270.664062 356.636719 L 270.664062 193 C 270.664062 181.535156 279.960938 172.234375 291.421875 172.234375 L 475.695312 172.234375 C 478.863281 172.234375 481.453125 174.824219 481.453125 177.996094 L 481.453125 249.957031 C 481.453125 265.175781 493.757812 277.644531 509.128906 277.644531 L 580.90625 277.644531 C 584.074219 277.644531 586.660156 280.234375 586.660156 283.402344 L 586.660156 557.097656 C 586.660156 568.5625 577.367188 577.859375 565.90625 577.859375 L 352.742188 577.859375 C 352.898438 579.289062 353.003906 580.871094 353.003906 582.300781 C 353.269531 594.082031 348.992188 605.070312 340.804688 613.527344 C 339.640625 614.6875 338.53125 615.796875 337.371094 616.800781 L 565.800781 616.800781 C 598.863281 616.800781 625.691406 589.960938 625.691406 556.886719 L 625.691406 279.335938 C 625.746094 263.429688 619.40625 248.214844 608.15625 236.960938 Z M 608.15625 236.960938 "/></g><path style=" stroke:none;fill-rule:nonzero;fill:#000000;fill-opacity:1;" d="M 541.820312 512.292969 C 541.820312 501.511719 533.054688 492.742188 522.277344 492.742188 L 334.996094 492.742188 C 324.21875 492.742188 315.453125 501.511719 315.453125 512.292969 C 315.453125 523.070312 324.21875 531.839844 334.996094 531.839844 L 522.277344 531.839844 C 533.054688 531.839844 541.820312 523.070312 541.820312 512.292969 Z M 541.820312 512.292969 "/><path style=" stroke:none;fill-rule:nonzero;fill:#000000;fill-opacity:1;" d="M 522.277344 447.089844 C 533.054688 447.089844 541.769531 438.320312 541.769531 427.59375 C 541.769531 416.867188 533 408.097656 522.277344 408.097656 L 349.308594 408.097656 C 352.054688 413.855469 353.164062 419.984375 353.058594 426.328125 C 352.898438 433.617188 350.890625 440.804688 347.300781 447.089844 Z M 522.277344 447.089844 "/><path style=" stroke:none;fill-rule:nonzero;fill:#000000;fill-opacity:1;" d="M 334.996094 362.339844 L 522.277344 362.339844 C 533.054688 362.339844 541.820312 353.570312 541.820312 342.792969 C 541.820312 332.011719 533.054688 323.242188 522.277344 323.242188 L 334.996094 323.242188 C 324.21875 323.242188 315.453125 332.011719 315.453125 342.792969 C 315.453125 353.625 324.167969 362.339844 334.996094 362.339844 Z M 334.996094 362.339844 "/><path style=" stroke:none;fill-rule:nonzero;fill:#000000;fill-opacity:1;" d="M 334.996094 277.589844 L 422.296875 277.589844 C 433.074219 277.589844 441.839844 268.820312 441.839844 258.042969 C 441.839844 247.261719 433.074219 238.492188 422.296875 238.492188 L 334.996094 238.492188 C 324.21875 238.492188 315.453125 247.261719 315.453125 258.042969 C 315.453125 268.875 324.167969 277.589844 334.996094 277.589844 Z M 334.996094 277.589844 "/><g clip-rule="nonzero" clip-path="url(#28ea488a3c)"><path style=" stroke:none;fill-rule:nonzero;fill:#000000;fill-opacity:1;" d="M 293.375 559.84375 C 290.945312 557.625 287.355469 557.785156 284.976562 560.109375 C 274.042969 570.941406 260.261719 576.910156 246.105469 576.910156 C 225.984375 576.910156 206.914062 564.652344 195.613281 544.734375 L 248.058594 544.734375 C 251.441406 544.734375 254.1875 541.984375 254.1875 538.605469 L 254.1875 520.164062 C 254.1875 516.78125 251.441406 514.035156 248.058594 514.035156 L 185.84375 514.035156 C 185.421875 510.546875 185.207031 507.324219 185.207031 504.261719 C 185.207031 501.195312 185.421875 497.972656 185.84375 494.378906 L 248.058594 494.378906 C 251.441406 494.378906 254.1875 491.632812 254.1875 488.25 L 254.1875 469.8125 C 254.1875 466.429688 251.441406 463.679688 248.058594 463.679688 L 195.667969 463.679688 C 206.914062 443.761719 226.035156 431.503906 246.105469 431.503906 C 260.15625 431.503906 273.992188 437.527344 284.976562 448.464844 C 287.355469 450.789062 291 450.84375 293.375 448.675781 L 313.816406 429.917969 C 315.03125 428.808594 315.769531 427.171875 315.820312 425.480469 C 315.875 423.789062 315.242188 422.257812 314.132812 420.988281 C 295.382812 401.96875 271.296875 391.507812 246.15625 391.507812 C 204.804688 391.507812 167.199219 420.460938 152.199219 463.628906 L 130.121094 463.628906 C 126.742188 463.628906 123.996094 466.375 123.996094 469.757812 L 123.996094 488.199219 C 123.996094 491.578125 126.742188 494.328125 130.121094 494.328125 L 145.703125 494.328125 C 145.4375 497.761719 145.28125 500.984375 145.28125 504.207031 C 145.28125 507.324219 145.386719 510.546875 145.703125 513.980469 L 130.121094 513.980469 C 126.742188 513.980469 123.996094 516.730469 123.996094 520.109375 L 123.996094 538.550781 C 123.996094 541.933594 126.742188 544.679688 130.121094 544.679688 L 152.144531 544.679688 C 167.09375 587.898438 204.699219 616.800781 246.105469 616.800781 C 271.296875 616.800781 295.433594 606.394531 314.078125 587.476562 C 315.242188 586.261719 315.875 584.675781 315.820312 582.988281 C 315.769531 581.296875 315.082031 579.65625 313.816406 578.546875 Z M 293.375 559.84375 "/></g><g style="fill:#17427b;fill-opacity:1;"><g transform="translate(513.869656, 227.576947)"><path style="stroke:none" d="M 3.671875 0.140625 C 3.160156 0.140625 2.753906 -0.00390625 2.453125 -0.296875 C 2.148438 -0.585938 2 -0.976562 2 -1.46875 C 2 -1.9375 2.148438 -2.320312 2.453125 -2.625 C 2.753906 -2.9375 3.160156 -3.09375 3.671875 -3.09375 C 4.203125 -3.09375 4.617188 -2.945312 4.921875 -2.65625 C 5.222656 -2.363281 5.375 -1.972656 5.375 -1.484375 C 5.375 -1.003906 5.21875 -0.613281 4.90625 -0.3125 C 4.601562 -0.0078125 4.191406 0.140625 3.671875 0.140625 Z M 3.671875 0.140625 "/></g></g></g></svg>