<svg xmlns="http://www.w3.org/2000/svg" xmlns:xlink="http://www.w3.org/1999/xlink" width="200" zoomAndPan="magnify" viewBox="0 0 150 149.999998" height="200" preserveAspectRatio="xMidYMid meet" version="1.2"><defs><clipPath id="4564cc1067"><path d="M 37 21.179688 L 129.480469 21.179688 L 129.480469 114 L 37 114 Z M 37 21.179688 "/></clipPath><clipPath id="7f8cdd32b0"><path d="M 20.730469 90 L 59 90 L 59 129 L 20.730469 129 Z M 20.730469 90 "/></clipPath></defs><g id="ada1efb5f2"><g clip-rule="nonzero" clip-path="url(#4564cc1067)"><path style=" stroke:none;fill-rule:nonzero;fill:#17427b;fill-opacity:1;" d="M 114.601562 30.621094 L 71.003906 21.210938 L 67.765625 36.167969 L 37.402344 36.167969 L 37.402344 86.609375 C 38.136719 86.53125 38.910156 86.496094 39.679688 86.496094 C 40.527344 86.496094 41.371094 86.53125 42.21875 86.644531 L 42.21875 41.023438 L 78.574219 41.023438 L 78.574219 58.742188 L 96.332031 58.742188 L 96.332031 109.179688 L 62.988281 109.179688 C 63.023438 109.398438 63.023438 109.621094 63.023438 109.839844 C 63.023438 111.273438 62.914062 112.636719 62.621094 113.992188 L 101.144531 113.992188 L 101.144531 107.304688 L 116.917969 110.722656 L 129.269531 53.375 Z M 114.234375 38.964844 L 121.511719 50.25 L 112.246094 48.226562 Z M 83.425781 53.925781 L 83.425781 44.441406 L 92.875 53.925781 Z M 113.203125 104.949219 L 101.144531 102.378906 L 101.144531 93.1875 L 105.960938 94.214844 L 106.953125 89.472656 L 101.144531 88.222656 L 101.144531 79.035156 L 108.867188 80.722656 L 109.894531 75.980469 L 101.144531 74.109375 L 101.144531 64.917969 L 111.769531 67.234375 L 112.800781 62.492188 L 101.144531 59.992188 L 101.144531 55.320312 L 81.992188 36.167969 L 72.730469 36.167969 L 74.714844 26.941406 L 110.226562 34.589844 L 106.511719 51.941406 L 123.828125 55.691406 Z M 113.203125 104.949219 "/></g><path style=" stroke:none;fill-rule:nonzero;fill:#17427b;fill-opacity:1;" d="M 86.957031 95.355469 L 57.988281 95.355469 C 59.164062 96.824219 60.15625 98.445312 60.929688 100.207031 L 86.957031 100.207031 Z M 86.957031 95.355469 "/><path style=" stroke:none;fill-rule:nonzero;fill:#17427b;fill-opacity:1;" d="M 51.59375 81.550781 L 86.960938 81.550781 L 86.960938 86.386719 L 51.59375 86.386719 Z M 51.59375 81.550781 "/><path style=" stroke:none;fill-rule:nonzero;fill:#17427b;fill-opacity:1;" d="M 50.132812 65.554688 L 53.292969 65.554688 C 53.703125 66.808594 54.3125 67.964844 55.0625 68.949219 C 55.980469 70.171875 57.101562 71.09375 58.425781 71.734375 C 59.648438 72.347656 61.042969 72.691406 62.570312 72.757812 L 62.945312 72.757812 C 64.949219 72.691406 66.886719 72.113281 68.585938 71.09375 L 66.785156 67.554688 C 65.59375 68.304688 64.238281 68.746094 62.777344 68.78125 C 60.804688 68.710938 58.765625 67.796875 57.574219 65.554688 L 63.660156 65.554688 L 63.660156 61.679688 L 56.558594 61.679688 C 56.523438 61.304688 56.488281 60.898438 56.488281 60.488281 C 56.488281 60.015625 56.523438 59.605469 56.558594 59.164062 L 63.660156 59.164062 L 63.660156 55.324219 L 57.644531 55.324219 C 58.832031 53.148438 60.839844 52.230469 62.777344 52.164062 C 64.238281 52.230469 65.59375 52.671875 66.75 53.421875 L 68.550781 49.820312 C 66.855469 48.835938 64.949219 48.289062 62.945312 48.222656 L 62.570312 48.222656 C 61.042969 48.257812 59.648438 48.59375 58.425781 49.207031 C 57.101562 49.855469 55.980469 50.804688 55.0625 51.992188 C 54.347656 52.976562 53.734375 54.066406 53.328125 55.324219 L 50.132812 55.324219 L 50.132812 59.164062 L 52.582031 59.164062 C 52.546875 59.605469 52.511719 60.046875 52.511719 60.488281 C 52.511719 60.898438 52.546875 61.269531 52.546875 61.679688 L 50.132812 61.679688 Z M 50.132812 65.554688 "/><g clip-rule="nonzero" clip-path="url(#7f8cdd32b0)"><path style=" stroke:none;fill-rule:nonzero;fill:#17427b;fill-opacity:1;" d="M 39.679688 90.890625 C 29.214844 90.890625 20.730469 99.375 20.730469 109.839844 C 20.730469 120.308594 29.214844 128.789062 39.679688 128.789062 C 50.144531 128.789062 58.628906 120.308594 58.628906 109.839844 C 58.628906 99.375 50.144531 90.890625 39.679688 90.890625 Z M 47.90625 106.210938 L 39.277344 116.46875 C 38.921875 116.894531 38.398438 117.136719 37.84375 117.136719 C 37.292969 117.136719 36.769531 116.894531 36.410156 116.46875 L 31.449219 110.570312 C 30.785156 109.777344 30.886719 108.597656 31.679688 107.933594 C 32.46875 107.269531 33.652344 107.367188 34.316406 108.160156 L 37.84375 112.351562 L 45.039062 103.804688 C 45.703125 103.011719 46.886719 102.910156 47.679688 103.574219 C 48.46875 104.242188 48.570312 105.421875 47.90625 106.210938 Z M 47.90625 106.210938 "/></g><g style="fill:#0a2f60;fill-opacity:1;"><g transform="translate(46.9293, 122.052885)"><path style="stroke:none" d="M 0.78125 0.03125 C 0.675781 0.03125 0.585938 0 0.515625 -0.0625 C 0.453125 -0.125 0.421875 -0.207031 0.421875 -0.3125 C 0.421875 -0.414062 0.453125 -0.5 0.515625 -0.5625 C 0.585938 -0.625 0.675781 -0.65625 0.78125 -0.65625 C 0.894531 -0.65625 0.984375 -0.625 1.046875 -0.5625 C 1.117188 -0.5 1.15625 -0.414062 1.15625 -0.3125 C 1.15625 -0.21875 1.117188 -0.132812 1.046875 -0.0625 C 0.984375 0 0.894531 0.03125 0.78125 0.03125 Z M 0.78125 0.03125 "/></g></g></g></svg>