<svg xmlns="http://www.w3.org/2000/svg" xmlns:xlink="http://www.w3.org/1999/xlink" width="1000" zoomAndPan="magnify" viewBox="0 0 750 749.999995" height="1000" preserveAspectRatio="xMidYMid meet" version="1.2"><defs><clipPath id="d24ffae1e8"><path d="M 231 133.09375 L 625.746094 133.09375 L 625.746094 616.84375 L 231 616.84375 Z M 231 133.09375 "/></clipPath><clipPath id="7023b42319"><path d="M 123.996094 391 L 316 391 L 316 616.84375 L 123.996094 616.84375 Z M 123.996094 391 "/></clipPath></defs><g id="c586b2f97e"><rect x="0" width="750" y="0" height="749.999995" style="fill:#ffffff;fill-opacity:1;stroke:none;"/><rect x="0" width="750" y="0" height="749.999995" style="fill:#ffffff;fill-opacity:1;stroke:none;"/><g clip-rule="nonzero" clip-path="url(#d24ffae1e8)"><path style=" stroke:none;fill-rule:nonzero;fill:#940703;fill-opacity:1;" d="M 608.40625 236.972656 L 521.796875 150.523438 C 510.648438 139.371094 495.480469 133.136719 479.734375 133.136719 L 291.507812 133.136719 C 258.375 133.136719 231.582031 160.085938 231.582031 193.058594 L 231.582031 355.234375 C 236.339844 354.652344 241.359375 354.390625 246.222656 354.390625 C 254.515625 354.390625 262.707031 355.234375 270.738281 356.660156 L 270.738281 193.007812 C 270.738281 181.539062 280.039062 172.238281 291.507812 172.238281 L 475.875 172.238281 C 479.046875 172.238281 481.636719 174.828125 481.636719 178 L 481.636719 249.972656 C 481.636719 265.191406 493.949219 277.660156 509.324219 277.660156 L 581.140625 277.660156 C 584.308594 277.660156 586.898438 280.25 586.898438 283.421875 L 586.898438 557.148438 C 586.898438 568.613281 577.597656 577.914062 566.132812 577.914062 L 352.859375 577.914062 C 353.015625 579.34375 353.121094 580.925781 353.121094 582.355469 C 353.386719 594.136719 349.105469 605.128906 340.914062 613.585938 C 339.753906 614.746094 338.644531 615.855469 337.480469 616.859375 L 566.027344 616.859375 C 599.105469 616.859375 625.949219 590.015625 625.949219 556.9375 L 625.949219 279.351562 C 626.003906 263.445312 619.660156 248.226562 608.40625 236.972656 Z M 608.40625 236.972656 "/></g><path style=" stroke:none;fill-rule:nonzero;fill:#940703;fill-opacity:1;" d="M 542.035156 512.335938 C 542.035156 501.558594 533.261719 492.785156 522.484375 492.785156 L 335.101562 492.785156 C 324.324219 492.785156 315.550781 501.558594 315.550781 512.335938 C 315.550781 523.117188 324.324219 531.890625 335.101562 531.890625 L 522.484375 531.890625 C 533.261719 531.890625 542.035156 523.117188 542.035156 512.335938 Z M 542.035156 512.335938 "/><path style=" stroke:none;fill-rule:nonzero;fill:#940703;fill-opacity:1;" d="M 522.484375 447.128906 C 533.261719 447.128906 541.984375 438.355469 541.984375 427.628906 C 541.984375 416.902344 533.210938 408.132812 522.484375 408.132812 L 349.421875 408.132812 C 352.171875 413.890625 353.28125 420.019531 353.175781 426.363281 C 353.015625 433.652344 351.007812 440.839844 347.414062 447.128906 Z M 522.484375 447.128906 "/><path style=" stroke:none;fill-rule:nonzero;fill:#940703;fill-opacity:1;" d="M 335.101562 362.367188 L 522.484375 362.367188 C 533.261719 362.367188 542.035156 353.597656 542.035156 342.816406 C 542.035156 332.039062 533.261719 323.265625 522.484375 323.265625 L 335.101562 323.265625 C 324.324219 323.265625 315.550781 332.039062 315.550781 342.816406 C 315.550781 353.648438 324.269531 362.367188 335.101562 362.367188 Z M 335.101562 362.367188 "/><path style=" stroke:none;fill-rule:nonzero;fill:#940703;fill-opacity:1;" d="M 335.101562 277.609375 L 422.453125 277.609375 C 433.230469 277.609375 442.003906 268.835938 442.003906 258.058594 C 442.003906 247.277344 433.230469 238.503906 422.453125 238.503906 L 335.101562 238.503906 C 324.324219 238.503906 315.550781 247.277344 315.550781 258.058594 C 315.550781 268.890625 324.269531 277.609375 335.101562 277.609375 Z M 335.101562 277.609375 "/><g clip-rule="nonzero" clip-path="url(#7023b42319)"><path style=" stroke:none;fill-rule:nonzero;fill:#940703;fill-opacity:1;" d="M 293.460938 559.894531 C 291.03125 557.675781 287.4375 557.835938 285.058594 560.160156 C 274.121094 570.992188 260.328125 576.964844 246.167969 576.964844 C 226.035156 576.964844 206.957031 564.703125 195.648438 544.78125 L 248.125 544.78125 C 251.503906 544.78125 254.253906 542.035156 254.253906 538.652344 L 254.253906 520.210938 C 254.253906 516.828125 251.503906 514.082031 248.125 514.082031 L 185.875 514.082031 C 185.453125 510.59375 185.238281 507.371094 185.238281 504.304688 C 185.238281 501.238281 185.453125 498.015625 185.875 494.421875 L 248.125 494.421875 C 251.503906 494.421875 254.253906 491.675781 254.253906 488.292969 L 254.253906 469.851562 C 254.253906 466.46875 251.503906 463.722656 248.125 463.722656 L 195.703125 463.722656 C 206.957031 443.800781 226.085938 431.539062 246.167969 431.539062 C 260.222656 431.539062 274.070312 437.566406 285.058594 448.503906 C 287.4375 450.828125 291.085938 450.878906 293.460938 448.714844 L 313.914062 429.953125 C 315.128906 428.84375 315.867188 427.207031 315.921875 425.515625 C 315.972656 423.824219 315.339844 422.292969 314.230469 421.023438 C 295.46875 402 271.375 391.539062 246.222656 391.539062 C 204.84375 391.539062 167.222656 420.496094 152.214844 463.667969 L 130.125 463.667969 C 126.742188 463.667969 123.996094 466.417969 123.996094 469.796875 L 123.996094 488.242188 C 123.996094 491.621094 126.742188 494.371094 130.125 494.371094 L 145.714844 494.371094 C 145.449219 497.804688 145.289062 501.027344 145.289062 504.253906 C 145.289062 507.371094 145.398438 510.59375 145.714844 514.027344 L 130.125 514.027344 C 126.742188 514.027344 123.996094 516.777344 123.996094 520.15625 L 123.996094 538.601562 C 123.996094 541.980469 126.742188 544.730469 130.125 544.730469 L 152.160156 544.730469 C 167.113281 587.957031 204.738281 616.859375 246.167969 616.859375 C 271.375 616.859375 295.523438 606.449219 314.175781 587.53125 C 315.339844 586.316406 315.972656 584.730469 315.921875 583.039062 C 315.867188 581.351562 315.179688 579.710938 313.914062 578.601562 Z M 293.460938 559.894531 "/></g><g style="fill:#17427b;fill-opacity:1;"><g transform="translate(513.869656, 227.576947)"><path style="stroke:none" d="M 3.671875 0.140625 C 3.160156 0.140625 2.753906 -0.00390625 2.453125 -0.296875 C 2.148438 -0.585938 2 -0.976562 2 -1.46875 C 2 -1.9375 2.148438 -2.320312 2.453125 -2.625 C 2.753906 -2.9375 3.160156 -3.09375 3.671875 -3.09375 C 4.203125 -3.09375 4.617188 -2.945312 4.921875 -2.65625 C 5.222656 -2.363281 5.375 -1.972656 5.375 -1.484375 C 5.375 -1.003906 5.21875 -0.613281 4.90625 -0.3125 C 4.601562 -0.0078125 4.191406 0.140625 3.671875 0.140625 Z M 3.671875 0.140625 "/></g></g></g></svg>